<?xml version="1.0" encoding="UTF-8" standalone="no"?>
<!DOCTYPE svg PUBLIC "-//W3C//DTD SVG 1.1//EN" "http://www.w3.org/Graphics/SVG/1.1/DTD/svg11.dtd">
<svg xmlns="http://www.w3.org/2000/svg" xmlns:xl="http://www.w3.org/1999/xlink" version="1.1" viewBox="0 0 806 536" width="806pt" height="536pt" xmlns:dc="http://purl.org/dc/elements/1.1/"><metadata> Produced by OmniGraffle 6.6.2 <dc:date>2017-05-09 06:45:44 +0000</dc:date></metadata><defs/><g stroke="none" stroke-opacity="1" stroke-dasharray="none" fill="none" fill-opacity="1"><title>Canvas 1</title><g><title>Layer 1</title><path d="M 60.470237 317.45674 L 57.164252 307.53879 L 63.77622 300.92682 L 73.694173 304.2328 L 77.000157 314.15076 L 70.38819 320.76272 Z" fill="white"/><path d="M 60.470237 317.45674 L 57.164252 307.53879 L 63.77622 300.92682 L 73.694173 304.2328 L 77.000157 314.15076 L 70.38819 320.76272 Z" stroke="black" stroke-linecap="round" stroke-linejoin="round" stroke-width="1"/><path d="M 77.000156 314.13837 L 73.694172 304.22042 L 80.30614 297.60845 L 90.224093 300.91444 L 93.53008 310.83239 L 86.91811 317.44436 Z" fill="white"/><path d="M 77.000156 314.13837 L 73.694172 304.22042 L 80.30614 297.60845 L 90.224093 300.91444 L 93.53008 310.83239 L 86.91811 317.44436 Z" stroke="black" stroke-linecap="round" stroke-linejoin="round" stroke-width="1"/><path d="M 73.694173 330.68068 L 70.38819 320.76272 L 77.000157 314.15076 L 86.91811 317.45674 L 90.224094 327.3747 L 83.612126 333.98666 Z" fill="white"/><path d="M 73.694173 330.68068 L 70.38819 320.76272 L 77.000157 314.15076 L 86.91811 317.45674 L 90.224094 327.3747 L 83.612126 333.98666 Z" stroke="black" stroke-linecap="round" stroke-linejoin="round" stroke-width="1"/><path d="M 90.224093 327.36231 L 86.91811 317.44436 L 93.53008 310.83239 L 103.44803 314.13837 L 106.754014 324.05633 L 100.142046 330.6683 Z" fill="white"/><path d="M 90.224093 327.36231 L 86.91811 317.44436 L 93.53008 310.83239 L 103.44803 314.13837 L 106.754014 324.05633 L 100.142046 330.6683 Z" stroke="black" stroke-linecap="round" stroke-linejoin="round" stroke-width="1"/><path d="M 80.30614 297.62084 L 77.000157 287.70288 L 83.612125 281.09091 L 93.53008 284.3969 L 96.83606 294.31485 L 90.224093 300.92682 Z" fill="white"/><path d="M 80.30614 297.62084 L 77.000157 287.70288 L 83.612125 281.09091 L 93.53008 284.3969 L 96.83606 294.31485 L 90.224093 300.92682 Z" stroke="black" stroke-linecap="round" stroke-linejoin="round" stroke-width="1"/><path d="M 96.83606 294.30247 L 93.530077 284.38452 L 100.142045 277.77255 L 110.06 281.07853 L 113.36598 290.99648 L 106.754013 297.60845 Z" fill="white"/><path d="M 96.83606 294.30247 L 93.530077 284.38452 L 100.142045 277.77255 L 110.06 281.07853 L 113.36598 290.99648 L 106.754013 297.60845 Z" stroke="black" stroke-linecap="round" stroke-linejoin="round" stroke-width="1"/><path d="M 93.53008 310.84477 L 90.224093 300.92682 L 96.83606 294.31485 L 106.754014 297.62084 L 110.06 307.53879 L 103.44803 314.15076 Z" fill="white"/><path d="M 93.53008 310.84477 L 90.224093 300.92682 L 96.83606 294.31485 L 106.754014 297.62084 L 110.06 307.53879 L 103.44803 314.15076 Z" stroke="black" stroke-linecap="round" stroke-linejoin="round" stroke-width="1"/><path d="M 110.06 307.5264 L 106.754013 297.60845 L 113.36598 290.99648 L 123.283934 294.30247 L 126.58992 304.22042 L 119.97795 310.83239 Z" fill="white"/><path d="M 110.06 307.5264 L 106.754013 297.60845 L 113.36598 290.99648 L 123.283934 294.30247 L 126.58992 304.22042 L 119.97795 310.83239 Z" stroke="black" stroke-linecap="round" stroke-linejoin="round" stroke-width="1"/><path d="M 86.91811 343.90461 L 83.612126 333.98666 L 90.224094 327.3747 L 100.142047 330.68068 L 103.44803 340.59863 L 96.83606 347.2106 Z" fill="white"/><path d="M 86.91811 343.90461 L 83.612126 333.98666 L 90.224094 327.3747 L 100.142047 330.68068 L 103.44803 340.59863 L 96.83606 347.2106 Z" stroke="black" stroke-linecap="round" stroke-linejoin="round" stroke-width="1"/><path d="M 103.44803 340.58625 L 100.142046 330.6683 L 106.754014 324.05633 L 116.67197 327.36231 L 119.97795 337.28026 L 113.36598 343.89223 Z" fill="white"/><path d="M 103.44803 340.58625 L 100.142046 330.6683 L 106.754014 324.05633 L 116.67197 327.36231 L 119.97795 337.28026 L 113.36598 343.89223 Z" stroke="black" stroke-linecap="round" stroke-linejoin="round" stroke-width="1"/><path d="M 100.142047 357.12855 L 96.83606 347.2106 L 103.44803 340.59863 L 113.36598 343.90461 L 116.67197 353.82257 L 110.06 360.43453 Z" fill="white"/><path d="M 100.142047 357.12855 L 96.83606 347.2106 L 103.44803 340.59863 L 113.36598 343.90461 L 116.67197 353.82257 L 110.06 360.43453 Z" stroke="black" stroke-linecap="round" stroke-linejoin="round" stroke-width="1"/><path d="M 116.67197 353.81018 L 113.36598 343.89223 L 119.97795 337.28026 L 129.8959 340.58625 L 133.20189 350.5042 L 126.58992 357.11617 Z" fill="white"/><path d="M 116.67197 353.81018 L 113.36598 343.89223 L 119.97795 337.28026 L 129.8959 340.58625 L 133.20189 350.5042 L 126.58992 357.11617 Z" stroke="black" stroke-linecap="round" stroke-linejoin="round" stroke-width="1"/><path d="M 106.754014 324.0687 L 103.44803 314.15076 L 110.06 307.53879 L 119.97795 310.84477 L 123.283935 320.76272 L 116.67197 327.3747 Z" fill="white"/><path d="M 106.754014 324.0687 L 103.44803 314.15076 L 110.06 307.53879 L 119.97795 310.84477 L 123.283935 320.76272 L 116.67197 327.3747 Z" stroke="black" stroke-linecap="round" stroke-linejoin="round" stroke-width="1"/><path d="M 123.283934 320.75034 L 119.97795 310.83239 L 126.58992 304.22042 L 136.50787 307.5264 L 139.813855 317.44436 L 133.20189 324.05633 Z" fill="white"/><path d="M 123.283934 320.75034 L 119.97795 310.83239 L 126.58992 304.22042 L 136.50787 307.5264 L 139.813855 317.44436 L 133.20189 324.05633 Z" stroke="black" stroke-linecap="round" stroke-linejoin="round" stroke-width="1"/><path d="M 119.97795 337.29265 L 116.67197 327.3747 L 123.283935 320.76272 L 133.20189 324.0687 L 136.50787 333.98666 L 129.8959 340.59863 Z" fill="white"/><path d="M 119.97795 337.29265 L 116.67197 327.3747 L 123.283935 320.76272 L 133.20189 324.0687 L 136.50787 333.98666 L 129.8959 340.59863 Z" stroke="black" stroke-linecap="round" stroke-linejoin="round" stroke-width="1"/><path d="M 136.50787 333.97428 L 133.20189 324.05633 L 139.813855 317.44436 L 149.73181 320.75034 L 153.03779 330.6683 L 146.42582 337.28026 Z" fill="white"/><path d="M 136.50787 333.97428 L 133.20189 324.05633 L 139.813855 317.44436 L 149.73181 320.75034 L 153.03779 330.6683 L 146.42582 337.28026 Z" stroke="black" stroke-linecap="round" stroke-linejoin="round" stroke-width="1"/><path d="M 100.142045 277.78493 L 96.83606 267.86698 L 103.44803 261.25501 L 113.36598 264.561 L 116.671966 274.47895 L 110.06 281.09092 Z" fill="white"/><path d="M 100.142045 277.78493 L 96.83606 267.86698 L 103.44803 261.25501 L 113.36598 264.561 L 116.671966 274.47895 L 110.06 281.09092 Z" stroke="black" stroke-linecap="round" stroke-linejoin="round" stroke-width="1"/><path d="M 116.671965 274.46656 L 113.36598 264.54861 L 119.97795 257.93664 L 129.8959 261.24263 L 133.201886 271.16058 L 126.58992 277.77255 Z" fill="white"/><path d="M 116.671965 274.46656 L 113.36598 264.54861 L 119.97795 257.93664 L 129.8959 261.24263 L 133.201886 271.16058 L 126.58992 277.77255 Z" stroke="black" stroke-linecap="round" stroke-linejoin="round" stroke-width="1"/><path d="M 113.36598 291.00887 L 110.06 281.09092 L 116.671966 274.47895 L 126.58992 277.78493 L 129.8959 287.70288 L 123.283934 294.31485 Z" fill="white"/><path d="M 113.36598 291.00887 L 110.06 281.09092 L 116.671966 274.47895 L 126.58992 277.78493 L 129.8959 287.70288 L 123.283934 294.31485 Z" stroke="black" stroke-linecap="round" stroke-linejoin="round" stroke-width="1"/><path d="M 129.8959 287.6905 L 126.58992 277.77255 L 133.201886 271.16058 L 143.11984 274.46656 L 146.42582 284.38452 L 139.813854 290.99649 Z" fill="white"/><path d="M 129.8959 287.6905 L 126.58992 277.77255 L 133.201886 271.16058 L 143.11984 274.46656 L 146.42582 284.38452 L 139.813854 290.99649 Z" stroke="black" stroke-linecap="round" stroke-linejoin="round" stroke-width="1"/><path d="M 119.97795 257.94903 L 116.671965 248.03107 L 123.28393 241.4191 L 133.20189 244.72509 L 136.50787 254.64304 L 129.8959 261.25501 Z" fill="white"/><path d="M 119.97795 257.94903 L 116.671965 248.03107 L 123.28393 241.4191 L 133.20189 244.72509 L 136.50787 254.64304 L 129.8959 261.25501 Z" stroke="black" stroke-linecap="round" stroke-linejoin="round" stroke-width="1"/><path d="M 136.50787 254.63066 L 133.201885 244.71271 L 139.81385 238.10074 L 149.73181 241.40672 L 153.03779 251.32468 L 146.42582 257.93664 Z" fill="white"/><path d="M 136.50787 254.63066 L 133.201885 244.71271 L 139.81385 238.10074 L 149.73181 241.40672 L 153.03779 251.32468 L 146.42582 257.93664 Z" stroke="black" stroke-linecap="round" stroke-linejoin="round" stroke-width="1"/><path d="M 133.20189 271.17296 L 129.8959 261.25501 L 136.50787 254.64304 L 146.42582 257.94903 L 149.73181 267.86698 L 143.11984 274.47895 Z" fill="white"/><path d="M 133.20189 271.17296 L 129.8959 261.25501 L 136.50787 254.64304 L 146.42582 257.94903 L 149.73181 267.86698 L 143.11984 274.47895 Z" stroke="black" stroke-linecap="round" stroke-linejoin="round" stroke-width="1"/><path d="M 149.73181 267.8546 L 146.42582 257.93664 L 153.03779 251.32468 L 162.95574 254.63066 L 166.26173 264.54861 L 159.64976 271.16058 Z" fill="white"/><path d="M 149.73181 267.8546 L 146.42582 257.93664 L 153.03779 251.32468 L 162.95574 254.63066 L 166.26173 264.54861 L 159.64976 271.16058 Z" stroke="black" stroke-linecap="round" stroke-linejoin="round" stroke-width="1"/><path d="M 126.58992 304.2328 L 123.283934 294.31485 L 129.8959 287.70288 L 139.813855 291.00887 L 143.11984 300.92682 L 136.50787 307.53879 Z" fill="white"/><path d="M 126.58992 304.2328 L 123.283934 294.31485 L 129.8959 287.70288 L 139.813855 291.00887 L 143.11984 300.92682 L 136.50787 307.53879 Z" stroke="black" stroke-linecap="round" stroke-linejoin="round" stroke-width="1"/><path d="M 143.11984 300.91444 L 139.813854 290.99649 L 146.42582 284.38452 L 156.343775 287.6905 L 159.64976 297.60845 L 153.03779 304.22042 Z" fill="white"/><path d="M 143.11984 300.91444 L 139.813854 290.99649 L 146.42582 284.38452 L 156.343775 287.6905 L 159.64976 297.60845 L 153.03779 304.22042 Z" stroke="black" stroke-linecap="round" stroke-linejoin="round" stroke-width="1"/><path d="M 139.813855 317.45674 L 136.50787 307.53879 L 143.11984 300.92682 L 153.03779 304.2328 L 156.34378 314.15076 L 149.73181 320.76273 Z" fill="white"/><path d="M 139.813855 317.45674 L 136.50787 307.53879 L 143.11984 300.92682 L 153.03779 304.2328 L 156.34378 314.15076 L 149.73181 320.76273 Z" stroke="black" stroke-linecap="round" stroke-linejoin="round" stroke-width="1"/><path d="M 156.343775 314.13837 L 153.03779 304.22042 L 159.64976 297.60845 L 169.56771 300.91444 L 172.8737 310.83239 L 166.26173 317.44436 Z" fill="white"/><path d="M 156.343775 314.13837 L 153.03779 304.22042 L 159.64976 297.60845 L 169.56771 300.91444 L 172.8737 310.83239 L 166.26173 317.44436 Z" stroke="black" stroke-linecap="round" stroke-linejoin="round" stroke-width="1"/><path d="M 146.42582 284.3969 L 143.11984 274.47895 L 149.73181 267.86698 L 159.64976 271.17296 L 162.95574 281.09092 L 156.34378 287.70288 Z" fill="white"/><path d="M 146.42582 284.3969 L 143.11984 274.47895 L 149.73181 267.86698 L 159.64976 271.17296 L 162.95574 281.09092 L 156.34378 287.70288 Z" stroke="black" stroke-linecap="round" stroke-linejoin="round" stroke-width="1"/><path d="M 162.95574 281.07853 L 159.64976 271.16058 L 166.26173 264.54861 L 176.17968 267.8546 L 179.48566 277.77255 L 172.8737 284.38452 Z" fill="white"/><path d="M 162.95574 281.07853 L 159.64976 271.16058 L 166.26173 264.54861 L 176.17968 267.8546 L 179.48566 277.77255 L 172.8737 284.38452 Z" stroke="black" stroke-linecap="round" stroke-linejoin="round" stroke-width="1"/><path d="M 159.64976 297.62084 L 156.34378 287.70288 L 162.95574 281.09092 L 172.8737 284.3969 L 176.17968 294.31485 L 169.56771 300.92682 Z" fill="white"/><path d="M 159.64976 297.62084 L 156.34378 287.70288 L 162.95574 281.09092 L 172.8737 284.3969 L 176.17968 294.31485 L 169.56771 300.92682 Z" stroke="black" stroke-linecap="round" stroke-linejoin="round" stroke-width="1"/><path d="M 176.17968 294.30247 L 172.8737 284.38452 L 179.48566 277.77255 L 189.40362 281.07853 L 192.7096 290.99649 L 186.09763 297.60845 Z" fill="white"/><path d="M 176.17968 294.30247 L 172.8737 284.38452 L 179.48566 277.77255 L 189.40362 281.07853 L 192.7096 290.99649 L 186.09763 297.60845 Z" stroke="black" stroke-linecap="round" stroke-linejoin="round" stroke-width="1"/><path d="M 113.36598 370.35249 L 110.06 360.43453 L 116.67197 353.82257 L 126.58992 357.12855 L 129.895904 367.0465 L 123.283936 373.65847 Z" fill="white"/><path d="M 113.36598 370.35249 L 110.06 360.43453 L 116.67197 353.82257 L 126.58992 357.12855 L 129.895904 367.0465 L 123.283936 373.65847 Z" stroke="black" stroke-linecap="round" stroke-linejoin="round" stroke-width="1"/><path d="M 129.8959 367.03412 L 126.58992 357.11617 L 133.20189 350.5042 L 143.11984 353.81018 L 146.42582 363.72814 L 139.813856 370.3401 Z" fill="white"/><path d="M 129.8959 367.03412 L 126.58992 357.11617 L 133.20189 350.5042 L 143.11984 353.81018 L 146.42582 363.72814 L 139.813856 370.3401 Z" stroke="black" stroke-linecap="round" stroke-linejoin="round" stroke-width="1"/><path d="M 126.58992 383.57642 L 123.283936 373.65847 L 129.895904 367.0465 L 139.81386 370.35249 L 143.11984 380.27044 L 136.50787 386.8824 Z" fill="white"/><path d="M 126.58992 383.57642 L 123.283936 373.65847 L 129.895904 367.0465 L 139.81386 370.35249 L 143.11984 380.27044 L 136.50787 386.8824 Z" stroke="black" stroke-linecap="round" stroke-linejoin="round" stroke-width="1"/><path d="M 143.11984 380.25806 L 139.813856 370.3401 L 146.42582 363.72814 L 156.34378 367.03412 L 159.64976 376.95207 L 153.03779 383.56404 Z" fill="white"/><path d="M 143.11984 380.25806 L 139.813856 370.3401 L 146.42582 363.72814 L 156.34378 367.03412 L 159.64976 376.95207 L 153.03779 383.56404 Z" stroke="black" stroke-linecap="round" stroke-linejoin="round" stroke-width="1"/><path d="M 133.20189 350.51658 L 129.8959 340.59863 L 136.50787 333.98666 L 146.42582 337.29265 L 149.73181 347.2106 L 143.11984 353.82257 Z" fill="white"/><path d="M 133.20189 350.51658 L 129.8959 340.59863 L 136.50787 333.98666 L 146.42582 337.29265 L 149.73181 347.2106 L 143.11984 353.82257 Z" stroke="black" stroke-linecap="round" stroke-linejoin="round" stroke-width="1"/><path d="M 149.73181 347.19822 L 146.42582 337.28026 L 153.03779 330.6683 L 162.95574 333.97428 L 166.26173 343.89223 L 159.64976 350.5042 Z" fill="white"/><path d="M 149.73181 347.19822 L 146.42582 337.28026 L 153.03779 330.6683 L 162.95574 333.97428 L 166.26173 343.89223 L 159.64976 350.5042 Z" stroke="black" stroke-linecap="round" stroke-linejoin="round" stroke-width="1"/><path d="M 146.42582 363.74052 L 143.11984 353.82257 L 149.73181 347.2106 L 159.64976 350.51658 L 162.95575 360.43453 L 156.34378 367.0465 Z" fill="white"/><path d="M 146.42582 363.74052 L 143.11984 353.82257 L 149.73181 347.2106 L 159.64976 350.51658 L 162.95575 360.43453 L 156.34378 367.0465 Z" stroke="black" stroke-linecap="round" stroke-linejoin="round" stroke-width="1"/><path d="M 162.95574 360.42215 L 159.64976 350.5042 L 166.26173 343.89223 L 176.17968 347.19822 L 179.48567 357.11617 L 172.8737 363.72814 Z" fill="white"/><path d="M 162.95574 360.42215 L 159.64976 350.5042 L 166.26173 343.89223 L 176.17968 347.19822 L 179.48567 357.11617 L 172.8737 363.72814 Z" stroke="black" stroke-linecap="round" stroke-linejoin="round" stroke-width="1"/><path d="M 139.81386 396.80036 L 136.50787 386.8824 L 143.11984 380.27044 L 153.03779 383.57642 L 156.34378 393.49438 L 149.73181 400.10634 Z" fill="white"/><path d="M 139.81386 396.80036 L 136.50787 386.8824 L 143.11984 380.27044 L 153.03779 383.57642 L 156.34378 393.49438 L 149.73181 400.10634 Z" stroke="black" stroke-linecap="round" stroke-linejoin="round" stroke-width="1"/><path d="M 156.34378 393.482 L 153.03779 383.56404 L 159.64976 376.95207 L 169.56771 380.25806 L 172.8737 390.176 L 166.26173 396.78798 Z" fill="white"/><path d="M 156.34378 393.482 L 153.03779 383.56404 L 159.64976 376.95207 L 169.56771 380.25806 L 172.8737 390.176 L 166.26173 396.78798 Z" stroke="black" stroke-linecap="round" stroke-linejoin="round" stroke-width="1"/><path d="M 153.03779 410.0243 L 149.73181 400.10634 L 156.34378 393.49438 L 166.26173 396.80036 L 169.56771 406.71831 L 162.95575 413.33028 Z" fill="white"/><path d="M 153.03779 410.0243 L 149.73181 400.10634 L 156.34378 393.49438 L 166.26173 396.80036 L 169.56771 406.71831 L 162.95575 413.33028 Z" stroke="black" stroke-linecap="round" stroke-linejoin="round" stroke-width="1"/><path d="M 169.56771 406.70593 L 166.26173 396.78798 L 172.8737 390.176 L 182.79165 393.482 L 186.09763 403.39995 L 179.48567 410.01191 Z" fill="white"/><path d="M 169.56771 406.70593 L 166.26173 396.78798 L 172.8737 390.176 L 182.79165 393.482 L 186.09763 403.39995 L 179.48567 410.01191 Z" stroke="black" stroke-linecap="round" stroke-linejoin="round" stroke-width="1"/><path d="M 159.64976 376.96446 L 156.34378 367.0465 L 162.95575 360.43453 L 172.8737 363.74052 L 176.17968 373.65847 L 169.56771 380.27044 Z" fill="white"/><path d="M 159.64976 376.96446 L 156.34378 367.0465 L 162.95575 360.43453 L 172.8737 363.74052 L 176.17968 373.65847 L 169.56771 380.27044 Z" stroke="black" stroke-linecap="round" stroke-linejoin="round" stroke-width="1"/><path d="M 176.17968 373.6461 L 172.8737 363.72814 L 179.48567 357.11617 L 189.40362 360.42215 L 192.7096 370.3401 L 186.09763 376.95207 Z" fill="white"/><path d="M 176.17968 373.6461 L 172.8737 363.72814 L 179.48567 357.11617 L 189.40362 360.42215 L 192.7096 370.3401 L 186.09763 376.95207 Z" stroke="black" stroke-linecap="round" stroke-linejoin="round" stroke-width="1"/><path d="M 172.8737 390.1884 L 169.56771 380.27044 L 176.17968 373.65847 L 186.09763 376.96446 L 189.40362 386.8824 L 182.79165 393.49438 Z" fill="white"/><path d="M 172.8737 390.1884 L 169.56771 380.27044 L 176.17968 373.65847 L 186.09763 376.96446 L 189.40362 386.8824 L 182.79165 393.49438 Z" stroke="black" stroke-linecap="round" stroke-linejoin="round" stroke-width="1"/><path d="M 189.40362 386.87003 L 186.09763 376.95207 L 192.7096 370.3401 L 202.62755 373.6461 L 205.93354 383.56404 L 199.32157 390.176 Z" fill="white"/><path d="M 189.40362 386.87003 L 186.09763 376.95207 L 192.7096 370.3401 L 202.62755 373.6461 L 205.93354 383.56404 L 199.32157 390.176 Z" stroke="black" stroke-linecap="round" stroke-linejoin="round" stroke-width="1"/><path d="M 153.03779 330.68068 L 149.73181 320.76273 L 156.34378 314.15076 L 166.26173 317.45674 L 169.56771 327.3747 L 162.95574 333.98666 Z" fill="white"/><path d="M 153.03779 330.68068 L 149.73181 320.76273 L 156.34378 314.15076 L 166.26173 317.45674 L 169.56771 327.3747 L 162.95574 333.98666 Z" stroke="black" stroke-linecap="round" stroke-linejoin="round" stroke-width="1"/><path d="M 169.56771 327.36231 L 166.26173 317.44436 L 172.8737 310.83239 L 182.79165 314.13837 L 186.09763 324.05633 L 179.48566 330.6683 Z" fill="white"/><path d="M 169.56771 327.36231 L 166.26173 317.44436 L 172.8737 310.83239 L 182.79165 314.13837 L 186.09763 324.05633 L 179.48566 330.6683 Z" stroke="black" stroke-linecap="round" stroke-linejoin="round" stroke-width="1"/><path d="M 166.26173 343.90461 L 162.95574 333.98666 L 169.56771 327.3747 L 179.48567 330.68068 L 182.79165 340.59863 L 176.17968 347.2106 Z" fill="white"/><path d="M 166.26173 343.90461 L 162.95574 333.98666 L 169.56771 327.3747 L 179.48567 330.68068 L 182.79165 340.59863 L 176.17968 347.2106 Z" stroke="black" stroke-linecap="round" stroke-linejoin="round" stroke-width="1"/><path d="M 182.79165 340.58625 L 179.48566 330.6683 L 186.09763 324.05633 L 196.01559 327.36231 L 199.32157 337.28026 L 192.7096 343.89223 Z" fill="white"/><path d="M 182.79165 340.58625 L 179.48566 330.6683 L 186.09763 324.05633 L 196.01559 327.36231 L 199.32157 337.28026 L 192.7096 343.89223 Z" stroke="black" stroke-linecap="round" stroke-linejoin="round" stroke-width="1"/><path d="M 172.8737 310.84477 L 169.56771 300.92682 L 176.17968 294.31485 L 186.09763 297.62084 L 189.40362 307.53879 L 182.79165 314.15076 Z" fill="white"/><path d="M 172.8737 310.84477 L 169.56771 300.92682 L 176.17968 294.31485 L 186.09763 297.62084 L 189.40362 307.53879 L 182.79165 314.15076 Z" stroke="black" stroke-linecap="round" stroke-linejoin="round" stroke-width="1"/><path d="M 189.40362 307.5264 L 186.09763 297.60845 L 192.7096 290.99649 L 202.62755 294.30247 L 205.93354 304.22042 L 199.32157 310.8324 Z" fill="white"/><path d="M 189.40362 307.5264 L 186.09763 297.60845 L 192.7096 290.99649 L 202.62755 294.30247 L 205.93354 304.22042 L 199.32157 310.8324 Z" stroke="black" stroke-linecap="round" stroke-linejoin="round" stroke-width="1"/><path d="M 186.09763 324.06871 L 182.79165 314.15076 L 189.40362 307.53879 L 199.32157 310.84477 L 202.62755 320.76273 L 196.01559 327.3747 Z" fill="white"/><path d="M 186.09763 324.06871 L 182.79165 314.15076 L 189.40362 307.53879 L 199.32157 310.84477 L 202.62755 320.76273 L 196.01559 327.3747 Z" stroke="black" stroke-linecap="round" stroke-linejoin="round" stroke-width="1"/><path d="M 202.62755 320.75034 L 199.32157 310.8324 L 205.93354 304.22042 L 215.85149 307.5264 L 219.15747 317.44436 L 212.5455 324.05633 Z" fill="white"/><path d="M 202.62755 320.75034 L 199.32157 310.8324 L 205.93354 304.22042 L 215.85149 307.5264 L 219.15747 317.44436 L 212.5455 324.05633 Z" stroke="black" stroke-linecap="round" stroke-linejoin="round" stroke-width="1"/><path d="M 179.48567 357.12855 L 176.17968 347.2106 L 182.79165 340.59863 L 192.7096 343.90461 L 196.01559 353.82257 L 189.40362 360.43454 Z" fill="white"/><path d="M 179.48567 357.12855 L 176.17968 347.2106 L 182.79165 340.59863 L 192.7096 343.90461 L 196.01559 353.82257 L 189.40362 360.43454 Z" stroke="black" stroke-linecap="round" stroke-linejoin="round" stroke-width="1"/><path d="M 196.01559 353.81018 L 192.7096 343.89223 L 199.32157 337.28026 L 209.23952 340.58625 L 212.5455 350.5042 L 205.93354 357.11617 Z" fill="white"/><path d="M 196.01559 353.81018 L 192.7096 343.89223 L 199.32157 337.28026 L 209.23952 340.58625 L 212.5455 350.5042 L 205.93354 357.11617 Z" stroke="black" stroke-linecap="round" stroke-linejoin="round" stroke-width="1"/><path d="M 192.7096 370.35249 L 189.40362 360.43454 L 196.01559 353.82257 L 205.93354 357.12855 L 209.23952 367.0465 L 202.62755 373.65847 Z" fill="white"/><path d="M 192.7096 370.35249 L 189.40362 360.43454 L 196.01559 353.82257 L 205.93354 357.12855 L 209.23952 367.0465 L 202.62755 373.65847 Z" stroke="black" stroke-linecap="round" stroke-linejoin="round" stroke-width="1"/><path d="M 209.23952 367.03412 L 205.93354 357.11617 L 212.5455 350.5042 L 222.46346 353.81018 L 225.76944 363.72814 L 219.15747 370.3401 Z" fill="white"/><path d="M 209.23952 367.03412 L 205.93354 357.11617 L 212.5455 350.5042 L 222.46346 353.81018 L 225.76944 363.72814 L 219.15747 370.3401 Z" stroke="black" stroke-linecap="round" stroke-linejoin="round" stroke-width="1"/><path d="M 199.32157 337.29265 L 196.01559 327.3747 L 202.62755 320.76273 L 212.54551 324.06871 L 215.85149 333.98666 L 209.23952 340.59863 Z" fill="white"/><path d="M 199.32157 337.29265 L 196.01559 327.3747 L 202.62755 320.76273 L 212.54551 324.06871 L 215.85149 333.98666 L 209.23952 340.59863 Z" stroke="black" stroke-linecap="round" stroke-linejoin="round" stroke-width="1"/><path d="M 215.85149 333.97428 L 212.5455 324.05633 L 219.15747 317.44436 L 229.07543 320.75034 L 232.38141 330.6683 L 225.76944 337.28026 Z" fill="white"/><path d="M 215.85149 333.97428 L 212.5455 324.05633 L 219.15747 317.44436 L 229.07543 320.75034 L 232.38141 330.6683 L 225.76944 337.28026 Z" stroke="black" stroke-linecap="round" stroke-linejoin="round" stroke-width="1"/><path d="M 212.54551 350.51658 L 209.23952 340.59863 L 215.85149 333.98666 L 225.76944 337.29265 L 229.07543 347.2106 L 222.46346 353.82257 Z" fill="white"/><path d="M 212.54551 350.51658 L 209.23952 340.59863 L 215.85149 333.98666 L 225.76944 337.29265 L 229.07543 347.2106 L 222.46346 353.82257 Z" stroke="black" stroke-linecap="round" stroke-linejoin="round" stroke-width="1"/><path d="M 229.07543 347.19822 L 225.76944 337.28026 L 232.38141 330.6683 L 242.29936 333.97428 L 245.60535 343.89223 L 238.99338 350.5042 Z" fill="white"/><path d="M 229.07543 347.19822 L 225.76944 337.28026 L 232.38141 330.6683 L 242.29936 333.97428 L 245.60535 343.89223 L 238.99338 350.5042 Z" stroke="black" stroke-linecap="round" stroke-linejoin="round" stroke-width="1"/><path d="M 53.9329 258.05382 L 136.58869 175.39803 L 248.98596 287.7953 L 166.33017 370.4511 Z" fill="white"/><path d="M 53.9329 258.05382 L 136.58869 175.39803 L 248.98596 287.7953 L 166.33017 370.4511 Z" stroke="black" stroke-linecap="round" stroke-linejoin="round" stroke-width="1"/><path d="M 53.9329 258.05382 L 136.58869 175.39803 L 192.78733 231.59667 L 110.131535 314.25246 Z" fill="white"/><path d="M 53.9329 258.05382 L 136.58869 175.39803 L 192.78733 231.59667 L 110.131535 314.25246 Z" stroke="black" stroke-linecap="round" stroke-linejoin="round" stroke-width="1"/><path d="M 110.131535 314.25246 L 151.42212 272.96188 L 207.62075 329.16051 L 166.33017 370.4511 Z" fill="white"/><path d="M 110.131535 314.25246 L 151.42212 272.96188 L 207.62075 329.16051 L 166.33017 370.4511 Z" stroke="black" stroke-linecap="round" stroke-linejoin="round" stroke-width="1"/><path d="M 95.29811 216.68861 L 136.58869 175.39803 L 192.78798 231.59732 L 151.4974 272.8879 Z" fill="white"/><path d="M 95.29811 216.68861 L 136.58869 175.39803 L 192.78798 231.59732 L 151.4974 272.8879 Z" stroke="black" stroke-linecap="round" stroke-linejoin="round" stroke-width="1"/><path d="M 95.22348 216.76324 L 136.663325 175.3234 L 164.724885 203.38496 L 123.28504 244.8248 Z" fill="white"/><path d="M 95.22348 216.76324 L 136.663325 175.3234 L 164.724885 203.38496 L 123.28504 244.8248 Z" stroke="black" stroke-linecap="round" stroke-linejoin="round" stroke-width="1"/><path d="M 123.28504 244.8248 L 164.724885 203.38496 L 192.86261 231.52269 L 151.42277 272.96253 Z" fill="white"/><path d="M 123.28504 244.8248 L 164.724885 203.38496 L 192.86261 231.52269 L 151.42277 272.96253 Z" stroke="black" stroke-linecap="round" stroke-linejoin="round" stroke-width="1"/><path d="M 123.35967 244.75017 L 144.00496 224.10488 L 172.14269 252.24261 L 151.4974 272.8879 Z" fill="white"/><path d="M 123.35967 244.75017 L 144.00496 224.10488 L 172.14269 252.24261 L 151.4974 272.8879 Z" stroke="black" stroke-linecap="round" stroke-linejoin="round" stroke-width="1"/><path d="M 95.29811 216.68861 L 115.9434 196.04332 L 144.00496 224.10488 L 123.35967 244.75017 Z" fill="white"/><path d="M 95.29811 216.68861 L 115.9434 196.04332 L 144.00496 224.10488 L 123.35967 244.75017 Z" stroke="black" stroke-linecap="round" stroke-linejoin="round" stroke-width="1"/><path d="M 53.9329 258.05382 L 74.727454 237.25927 L 102.789014 265.32083 L 81.99446 286.11538 Z" fill="white"/><path d="M 53.9329 258.05382 L 74.727454 237.25927 L 102.789014 265.32083 L 81.99446 286.11538 Z" stroke="black" stroke-linecap="round" stroke-linejoin="round" stroke-width="1"/><path d="M 102.79055 265.47163 L 123.43584 244.82634 L 151.4974 272.8879 L 130.85211 293.53319 Z" fill="white"/><path d="M 102.79055 265.47163 L 123.43584 244.82634 L 151.4974 272.8879 L 130.85211 293.53319 Z" stroke="black" stroke-linecap="round" stroke-linejoin="round" stroke-width="1"/><path d="M 151.4974 272.8879 L 172.14269 252.24261 L 200.20425 280.30417 L 179.55896 300.94946 Z" fill="white"/><path d="M 151.4974 272.8879 L 172.14269 252.24261 L 200.20425 280.30417 L 179.55896 300.94946 Z" stroke="black" stroke-linecap="round" stroke-linejoin="round" stroke-width="1"/><path d="M 172.21732 252.16798 L 192.86261 231.52269 L 220.92417 259.58425 L 200.27888 280.22954 Z" fill="white"/><path d="M 172.21732 252.16798 L 192.86261 231.52269 L 220.92417 259.58425 L 200.27888 280.22954 Z" stroke="black" stroke-linecap="round" stroke-linejoin="round" stroke-width="1"/><path d="M 200.20579 280.45497 L 221.00034 259.66042 L 249.0619 287.72198 L 228.26735 308.51653 Z" fill="white"/><path d="M 200.20579 280.45497 L 221.00034 259.66042 L 249.0619 287.72198 L 228.26735 308.51653 Z" stroke="black" stroke-linecap="round" stroke-linejoin="round" stroke-width="1"/><path d="M 179.48433 301.0241 L 200.12962 280.3788 L 228.19118 308.44036 L 207.54589 329.08565 Z" fill="white"/><path d="M 179.48433 301.0241 L 200.12962 280.3788 L 228.19118 308.44036 L 207.54589 329.08565 Z" stroke="black" stroke-linecap="round" stroke-linejoin="round" stroke-width="1"/><path d="M 130.77748 293.60782 L 151.42277 272.96253 L 179.48433 301.0241 L 158.83904 321.66938 Z" fill="white"/><path d="M 130.77748 293.60782 L 151.42277 272.96253 L 179.48433 301.0241 L 158.83904 321.66938 Z" stroke="black" stroke-linecap="round" stroke-linejoin="round" stroke-width="1"/><path d="M 110.05756 314.32775 L 130.85211 293.53319 L 158.91367 321.59475 L 138.11912 342.3893 Z" fill="white"/><path d="M 110.05756 314.32775 L 130.85211 293.53319 L 158.91367 321.59475 L 138.11912 342.3893 Z" stroke="black" stroke-linecap="round" stroke-linejoin="round" stroke-width="1"/><path d="M 158.68978 321.81865 L 179.48433 301.0241 L 207.54589 329.08565 L 186.75134 349.8802 Z" fill="white"/><path d="M 158.68978 321.81865 L 179.48433 301.0241 L 207.54589 329.08565 L 186.75134 349.8802 Z" stroke="black" stroke-linecap="round" stroke-linejoin="round" stroke-width="1"/><path d="M 138.11912 342.3893 L 158.91367 321.59475 L 186.97523 349.65631 L 166.18068 370.45087 Z" fill="white"/><path d="M 138.11912 342.3893 L 158.91367 321.59475 L 186.97523 349.65631 L 166.18068 370.45087 Z" stroke="black" stroke-linecap="round" stroke-linejoin="round" stroke-width="1"/><path d="M 53.9329 186.19499 L 136.58869 103.5392 L 248.98596 215.93647 L 166.33017 298.59226 Z" fill="white"/><path d="M 53.9329 186.19499 L 136.58869 103.5392 L 248.98596 215.93647 L 166.33017 298.59226 Z" stroke="black" stroke-linecap="round" stroke-linejoin="round" stroke-width="1"/><path d="M 53.9329 186.19499 L 136.58869 103.5392 L 192.78733 159.737835 L 110.131535 242.39363 Z" fill="white"/><path d="M 53.9329 186.19499 L 136.58869 103.5392 L 192.78733 159.737835 L 110.131535 242.39363 Z" stroke="black" stroke-linecap="round" stroke-linejoin="round" stroke-width="1"/><path d="M 110.131535 242.39363 L 151.42212 201.10305 L 207.62075 257.30168 L 166.33017 298.59226 Z" fill="white"/><path d="M 110.131535 242.39363 L 151.42212 201.10305 L 207.62075 257.30168 L 166.33017 298.59226 Z" stroke="black" stroke-linecap="round" stroke-linejoin="round" stroke-width="1"/><path d="M 95.29811 144.82978 L 136.58869 103.5392 L 192.78798 159.73849 L 151.4974 201.02907 Z" fill="white"/><path d="M 95.29811 144.82978 L 136.58869 103.5392 L 192.78798 159.73849 L 151.4974 201.02907 Z" stroke="black" stroke-linecap="round" stroke-linejoin="round" stroke-width="1"/><path d="M 95.22348 144.90441 L 136.663325 103.46457 L 164.724885 131.52613 L 123.28504 172.96597 Z" fill="white"/><path d="M 95.22348 144.90441 L 136.663325 103.46457 L 164.724885 131.52613 L 123.28504 172.96597 Z" stroke="black" stroke-linecap="round" stroke-linejoin="round" stroke-width="1"/><path d="M 123.28504 172.96597 L 164.724885 131.52613 L 192.86261 159.66386 L 151.42277 201.1037 Z" fill="black"/><path d="M 123.28504 172.96597 L 164.724885 131.52613 L 192.86261 159.66386 L 151.42277 201.1037 Z" stroke="black" stroke-linecap="round" stroke-linejoin="round" stroke-width="1"/><path d="M 123.35967 172.89134 L 144.00496 152.24605 L 172.14269 180.38378 L 151.4974 201.02907 Z" fill="white"/><path d="M 123.35967 172.89134 L 144.00496 152.24605 L 172.14269 180.38378 L 151.4974 201.02907 Z" stroke="black" stroke-linecap="round" stroke-linejoin="round" stroke-width="1"/><path d="M 95.29811 144.82978 L 115.9434 124.18449 L 144.00496 152.24605 L 123.35967 172.89134 Z" fill="white"/><path d="M 95.29811 144.82978 L 115.9434 124.18449 L 144.00496 152.24605 L 123.35967 172.89134 Z" stroke="black" stroke-linecap="round" stroke-linejoin="round" stroke-width="1"/><path d="M 53.9329 186.19499 L 74.727454 165.40044 L 102.789014 193.462 L 81.99446 214.25655 Z" fill="black"/><path d="M 53.9329 186.19499 L 74.727454 165.40044 L 102.789014 193.462 L 81.99446 214.25655 Z" stroke="black" stroke-linecap="round" stroke-linejoin="round" stroke-width="1"/><path d="M 102.79055 193.6128 L 123.43584 172.96751 L 151.4974 201.02907 L 130.85211 221.67436 Z" fill="white"/><path d="M 102.79055 193.6128 L 123.43584 172.96751 L 151.4974 201.02907 L 130.85211 221.67436 Z" stroke="black" stroke-linecap="round" stroke-linejoin="round" stroke-width="1"/><path d="M 151.4974 201.02907 L 172.14269 180.38378 L 200.20425 208.44534 L 179.55896 229.09063 Z" fill="white"/><path d="M 151.4974 201.02907 L 172.14269 180.38378 L 200.20425 208.44534 L 179.55896 229.09063 Z" stroke="black" stroke-linecap="round" stroke-linejoin="round" stroke-width="1"/><path d="M 172.21732 180.30915 L 192.86261 159.66386 L 220.92417 187.72542 L 200.27888 208.37071 Z" fill="white"/><path d="M 172.21732 180.30915 L 192.86261 159.66386 L 220.92417 187.72542 L 200.27888 208.37071 Z" stroke="black" stroke-linecap="round" stroke-linejoin="round" stroke-width="1"/><path d="M 200.20579 208.59614 L 221.00034 187.80159 L 249.0619 215.86315 L 228.26735 236.6577 Z" fill="black"/><path d="M 200.20579 208.59614 L 221.00034 187.80159 L 249.0619 215.86315 L 228.26735 236.6577 Z" stroke="black" stroke-linecap="round" stroke-linejoin="round" stroke-width="1"/><path d="M 179.48433 229.16526 L 200.12962 208.51997 L 228.19118 236.58153 L 207.54589 257.22682 Z" fill="white"/><path d="M 179.48433 229.16526 L 200.12962 208.51997 L 228.19118 236.58153 L 207.54589 257.22682 Z" stroke="black" stroke-linecap="round" stroke-linejoin="round" stroke-width="1"/><path d="M 130.77748 221.74899 L 151.42277 201.1037 L 179.48433 229.16526 L 158.83904 249.81055 Z" fill="white"/><path d="M 130.77748 221.74899 L 151.42277 201.1037 L 179.48433 229.16526 L 158.83904 249.81055 Z" stroke="black" stroke-linecap="round" stroke-linejoin="round" stroke-width="1"/><path d="M 110.05756 242.46891 L 130.85211 221.67436 L 158.91367 249.73592 L 138.11912 270.53047 Z" fill="white"/><path d="M 110.05756 242.46891 L 130.85211 221.67436 L 158.91367 249.73592 L 138.11912 270.53047 Z" stroke="black" stroke-linecap="round" stroke-linejoin="round" stroke-width="1"/><path d="M 158.68978 249.95982 L 179.48433 229.16526 L 207.54589 257.22682 L 186.75134 278.02138 Z" fill="white"/><path d="M 158.68978 249.95982 L 179.48433 229.16526 L 207.54589 257.22682 L 186.75134 278.02138 Z" stroke="black" stroke-linecap="round" stroke-linejoin="round" stroke-width="1"/><path d="M 138.11912 270.53047 L 158.91367 249.73592 L 186.97523 277.79748 L 166.18068 298.59203 Z" fill="black"/><path d="M 138.11912 270.53047 L 158.91367 249.73592 L 186.97523 277.79748 L 166.18068 298.59203 Z" stroke="black" stroke-linecap="round" stroke-linejoin="round" stroke-width="1"/></g></g></svg>
