<?xml version="1.0" encoding="UTF-8"?>
<svg width="566px" height="390px" viewBox="0 0 566 390" version="1.1" xmlns="http://www.w3.org/2000/svg" xmlns:xlink="http://www.w3.org/1999/xlink">
    <!-- Generator: Sketch 43.2 (39069) - http://www.bohemiancoding.com/sketch -->
    <title>grids</title>
    <desc>Created with Sketch.</desc>
    <defs></defs>
    <g id="Page-1" stroke="none" stroke-width="1" fill="none" fill-rule="evenodd">
        <g id="grids" opacity="0.75" transform="translate(1.000000, 1.000000)">
            <g id="layers-diagram">
                <polygon id="Shape" fill="#FFFFFF" fill-rule="nonzero" points="22.2272531 268.010534 16.3026857 255.6062 25.8861323 247.336639 41.3941463 251.471413 47.173396 263.87576 37.5899502 272.145308"></polygon>
                <polygon id="Shape" stroke="#000000" stroke-linecap="round" stroke-linejoin="round" points="22.2272531 268.010534 16.3026857 255.6062 25.8861323 247.336639 41.3941463 251.471413 47.173396 263.87576 37.5899502 272.145308"></polygon>
                <polygon id="Shape" fill="#FFFFFF" fill-rule="nonzero" points="47.1725178 263.860264 41.3932299 251.45593 51.1013116 243.186369 66.5886834 247.321156 72.2226589 259.72549 62.5145742 267.99505"></polygon>
                <polygon id="Shape" stroke="#000000" stroke-linecap="round" stroke-linejoin="round" points="47.1725178 263.860264 41.3932299 251.45593 51.1013116 243.186369 66.5886834 247.321156 72.2226589 259.72549 62.5145742 267.99505"></polygon>
                <polygon id="Shape" fill="#FFFFFF" fill-rule="nonzero" points="43.3484388 284.549655 37.5899502 272.145308 47.173396 263.87576 62.5153335 268.010534 68.1285066 280.414881 58.5450594 288.684429"></polygon>
                <polygon id="Shape" stroke="#000000" stroke-linecap="round" stroke-linejoin="round" points="43.3484388 284.549655 37.5899502 272.145308 47.173396 263.87576 62.5153335 268.010534 68.1285066 280.414881 58.5450594 288.684429"></polygon>
                <polygon id="Shape" fill="#FFFFFF" fill-rule="nonzero" points="68.1277841 280.399385 62.5145742 267.99505 72.2226589 259.72549 87.5439491 263.860264 93.011844 276.264611 83.3037623 284.534171"></polygon>
                <polygon id="Shape" stroke="#000000" stroke-linecap="round" stroke-linejoin="round" points="68.1277841 280.399385 62.5145742 267.99505 72.2226589 259.72549 87.5439491 263.860264 93.011844 276.264611 83.3037623 284.534171"></polygon>
                <polygon id="Shape" fill="#FFFFFF" fill-rule="nonzero" points="51.1021494 243.201866 45.3021417 230.797519 55.134703 222.527958 70.7672781 226.662745 76.4219636 239.067079 66.5894038 247.336639"></polygon>
                <polygon id="Shape" stroke="#000000" stroke-linecap="round" stroke-linejoin="round" points="51.1021494 243.201866 45.3021417 230.797519 55.134703 222.527958 70.7672781 226.662745 76.4219636 239.067079 66.5894038 247.336639"></polygon>
                <polygon id="Shape" fill="#FFFFFF" fill-rule="nonzero" points="76.4213209 239.051595 70.7665919 226.647261 80.7237883 218.377701 96.33572 222.512475 101.845127 234.916809 91.8879325 243.186369"></polygon>
                <polygon id="Shape" stroke="#000000" stroke-linecap="round" stroke-linejoin="round" points="76.4213209 239.051595 70.7665919 226.647261 80.7237883 218.377701 96.33572 222.512475 101.845127 234.916809 91.8879325 243.186369"></polygon>
                <polygon id="Shape" fill="#FFFFFF" fill-rule="nonzero" points="72.2233405 259.740974 66.5894038 247.336639 76.4219636 239.067079 91.8884606 243.201866 97.3770789 255.6062 87.5445145 263.87576"></polygon>
                <polygon id="Shape" stroke="#000000" stroke-linecap="round" stroke-linejoin="round" points="72.2233405 259.740974 66.5894038 247.336639 76.4219636 239.067079 91.8884606 243.201866 97.3770789 255.6062 87.5445145 263.87576"></polygon>
                <polygon id="Shape" fill="#FFFFFF" fill-rule="nonzero" points="97.3765912 255.590704 91.8879325 243.186369 101.845127 234.916809 117.290981 239.051595 122.634322 251.45593 112.677122 259.72549"></polygon>
                <polygon id="Shape" stroke="#000000" stroke-linecap="round" stroke-linejoin="round" points="97.3765912 255.590704 91.8879325 243.186369 101.845127 234.916809 117.290981 239.051595 122.634322 251.45593 112.677122 259.72549"></polygon>
                <polygon id="Shape" fill="#FFFFFF" fill-rule="nonzero" points="64.1374724 301.088763 58.5450594 288.684429 68.1285066 280.414881 83.3043677 284.549655 88.7514623 296.953989 79.1680127 305.223549"></polygon>
                <polygon id="Shape" stroke="#000000" stroke-linecap="round" stroke-linejoin="round" points="64.1374724 301.088763 58.5450594 288.684429 68.1285066 280.414881 83.3043677 284.549655 88.7514623 296.953989 79.1680127 305.223549"></polygon>
                <polygon id="Shape" fill="#FFFFFF" fill-rule="nonzero" points="88.7508973 296.938505 83.3037623 284.534171 93.011844 276.264611 108.167067 280.399385 113.468879 292.803719 103.760794 301.073279"></polygon>
                <polygon id="Shape" stroke="#000000" stroke-linecap="round" stroke-linejoin="round" points="88.7508973 296.938505 83.3037623 284.534171 93.011844 276.264611 108.167067 280.399385 113.468879 292.803719 103.760794 301.073279"></polygon>
                <polygon id="Shape" fill="#FFFFFF" fill-rule="nonzero" points="84.5943537 317.627884 79.1680127 305.223549 88.7514623 296.953989 103.761242 301.088763 109.042271 313.49311 99.4588215 321.762658"></polygon>
                <polygon id="Shape" stroke="#000000" stroke-linecap="round" stroke-linejoin="round" points="84.5943537 317.627884 79.1680127 305.223549 88.7514623 296.953989 103.761242 301.088763 109.042271 313.49311 99.4588215 321.762658"></polygon>
                <polygon id="Shape" fill="#FFFFFF" fill-rule="nonzero" points="109.041862 313.477614 103.760794 301.073279 113.468879 292.803719 128.458016 296.938505 133.593767 309.34284 123.885682 317.6124"></polygon>
                <polygon id="Shape" stroke="#000000" stroke-linecap="round" stroke-linejoin="round" points="109.041862 313.477614 103.760794 301.073279 113.468879 292.803719 128.458016 296.938505 133.593767 309.34284 123.885682 317.6124"></polygon>
                <polygon id="Shape" fill="#FFFFFF" fill-rule="nonzero" points="93.0123697 276.280082 87.5445145 263.87576 97.3770789 255.6062 112.677493 259.740974 118.000033 272.145308 108.167477 280.414881"></polygon>
                <polygon id="Shape" stroke="#000000" stroke-linecap="round" stroke-linejoin="round" points="93.0123697 276.280082 87.5445145 263.87576 97.3770789 255.6062 112.677493 259.740974 118.000033 272.145308 108.167477 280.414881"></polygon>
                <polygon id="Shape" fill="#FFFFFF" fill-rule="nonzero" points="117.9997 272.129824 112.677122 259.72549 122.634322 251.45593 137.914093 255.590704 143.091355 267.99505 133.134163 276.264611"></polygon>
                <polygon id="Shape" stroke="#000000" stroke-linecap="round" stroke-linejoin="round" points="117.9997 272.129824 112.677122 259.72549 122.634322 251.45593 137.914093 255.590704 143.091355 267.99505 133.134163 276.264611"></polygon>
                <polygon id="Shape" fill="#FFFFFF" fill-rule="nonzero" points="113.46925 292.819215 108.167477 280.414881 118.000033 272.145308 133.134378 276.280082 138.290835 288.684429 128.458271 296.953989"></polygon>
                <polygon id="Shape" stroke="#000000" stroke-linecap="round" stroke-linejoin="round" points="113.46925 292.819215 108.167477 280.414881 118.000033 272.145308 133.134378 276.280082 138.290835 288.684429 128.458271 296.953989"></polygon>
                <polygon id="Shape" fill="#FFFFFF" fill-rule="nonzero" points="138.290659 288.668945 133.134163 276.264611 143.091355 267.99505 158.205058 272.129824 163.216236 284.534171 153.259036 292.803719"></polygon>
                <polygon id="Shape" stroke="#000000" stroke-linecap="round" stroke-linejoin="round" points="138.290659 288.668945 133.134163 276.264611 143.091355 267.99505 158.205058 272.129824 163.216236 284.534171 153.259036 292.803719"></polygon>
                <polygon id="Shape" fill="#FFFFFF" fill-rule="nonzero" points="80.7243921 218.393184 75.0489393 205.98885 85.1306185 197.71929 100.887743 201.854076 106.41788 214.258411 96.3362076 222.527971"></polygon>
                <polygon id="Shape" stroke="#000000" stroke-linecap="round" stroke-linejoin="round" points="80.7243921 218.393184 75.0489393 205.98885 85.1306185 197.71929 100.887743 201.854076 106.41788 214.258411 96.3362076 222.527971"></polygon>
                <polygon id="Shape" fill="#FFFFFF" fill-rule="nonzero" points="106.417469 214.242914 100.887294 201.83858 111.093609 193.56902 126.83009 197.703806 132.21495 210.10814 122.008642 218.377701"></polygon>
                <polygon id="Shape" stroke="#000000" stroke-linecap="round" stroke-linejoin="round" points="106.417469 214.242914 100.887294 201.83858 111.093609 193.56902 126.83009 197.703806 132.21495 210.10814 122.008642 218.377701"></polygon>
                <polygon id="Shape" fill="#FFFFFF" fill-rule="nonzero" points="101.845576 234.932305 96.3362076 222.527971 106.41788 214.258411 122.008934 218.393184 127.372986 230.797519 117.291313 239.067079"></polygon>
                <polygon id="Shape" stroke="#000000" stroke-linecap="round" stroke-linejoin="round" points="101.845576 234.932305 96.3362076 222.527971 106.41788 214.258411 122.008934 218.393184 127.372986 230.797519 117.291313 239.067079"></polygon>
                <polygon id="Shape" fill="#FFFFFF" fill-rule="nonzero" points="127.372732 230.782035 122.008642 218.377701 132.21495 210.10814 147.785361 214.242914 153.004135 226.647261 142.797826 234.916822"></polygon>
                <polygon id="Shape" stroke="#000000" stroke-linecap="round" stroke-linejoin="round" points="127.372732 230.782035 122.008642 218.377701 132.21495 210.10814 147.785361 214.242914 153.004135 226.647261 142.797826 234.916822"></polygon>
                <polygon id="Shape" fill="#FFFFFF" fill-rule="nonzero" points="111.093979 193.584516 105.543084 181.180169 115.87387 172.910609 131.755567 177.045395 137.161138 189.449729 126.830344 197.71929"></polygon>
                <polygon id="Shape" stroke="#000000" stroke-linecap="round" stroke-linejoin="round" points="111.093979 193.584516 105.543084 181.180169 115.87387 172.910609 131.755567 177.045395 137.161138 189.449729 126.830344 197.71929"></polygon>
                <polygon id="Shape" fill="#FFFFFF" fill-rule="nonzero" points="137.160962 189.434246 131.755344 177.029912 142.210765 168.760351 158.07182 172.895125 163.332113 185.299472 152.876683 193.56902"></polygon>
                <polygon id="Shape" stroke="#000000" stroke-linecap="round" stroke-linejoin="round" points="137.160962 189.434246 131.755344 177.029912 142.210765 168.760351 158.07182 172.895125 163.332113 185.299472 152.876683 193.56902"></polygon>
                <polygon id="Shape" fill="#FFFFFF" fill-rule="nonzero" points="132.215171 210.123624 126.830344 197.71929 137.161138 189.449729 152.876743 193.584516 158.116253 205.98885 147.785459 214.258411"></polygon>
                <polygon id="Shape" stroke="#000000" stroke-linecap="round" stroke-linejoin="round" points="132.215171 210.123624 126.830344 197.71929 137.161138 189.449729 152.876743 193.584516 158.116253 205.98885 147.785459 214.258411"></polygon>
                <polygon id="Shape" fill="#FFFFFF" fill-rule="nonzero" points="158.116232 205.973367 152.876683 193.56902 163.332113 185.299472 179.027075 189.434246 184.121307 201.83858 173.665878 210.10814"></polygon>
                <polygon id="Shape" stroke="#000000" stroke-linecap="round" stroke-linejoin="round" points="158.116232 205.973367 152.876683 193.56902 163.332113 185.299472 179.027075 189.434246 184.121307 201.83858 173.665878 210.10814"></polygon>
                <polygon id="Shape" fill="#FFFFFF" fill-rule="nonzero" points="122.634615 251.471413 117.291313 239.067079 127.372986 230.797519 142.797965 234.932305 147.995948 247.336639 137.914269 255.6062"></polygon>
                <polygon id="Shape" stroke="#000000" stroke-linecap="round" stroke-linejoin="round" points="122.634615 251.471413 117.291313 239.067079 127.372986 230.797519 142.797965 234.932305 147.995948 247.336639 137.914269 255.6062"></polygon>
                <polygon id="Shape" fill="#FFFFFF" fill-rule="nonzero" points="147.99585 247.321156 142.797826 234.916822 153.004135 226.647261 168.408471 230.782035 173.461176 243.186369 163.254862 251.45593"></polygon>
                <polygon id="Shape" stroke="#000000" stroke-linecap="round" stroke-linejoin="round" points="147.99585 247.321156 142.797826 234.916822 153.004135 226.647261 168.408471 230.782035 173.461176 243.186369 163.254862 251.45593"></polygon>
                <polygon id="Shape" fill="#FFFFFF" fill-rule="nonzero" points="143.091493 268.010534 137.914269 255.6062 147.995948 247.336639 163.254843 251.471413 168.286758 263.87576 158.205078 272.145321"></polygon>
                <polygon id="Shape" stroke="#000000" stroke-linecap="round" stroke-linejoin="round" points="143.091493 268.010534 137.914269 255.6062 147.995948 247.336639 163.254843 251.471413 168.286758 263.87576 158.205078 272.145321"></polygon>
                <polygon id="Shape" fill="#FFFFFF" fill-rule="nonzero" points="168.286807 263.860264 163.254862 251.45593 173.461176 243.186369 188.699428 247.321156 193.586064 259.72549 183.37975 267.99505"></polygon>
                <polygon id="Shape" stroke="#000000" stroke-linecap="round" stroke-linejoin="round" points="168.286807 263.860264 163.254862 251.45593 173.461176 243.186369 188.699428 247.321156 193.586064 259.72549 183.37975 267.99505"></polygon>
                <polygon id="Shape" fill="#FFFFFF" fill-rule="nonzero" points="153.004194 226.662745 147.785459 214.258411 158.116253 205.98885 173.665782 210.123624 178.7392 222.527971 168.408422 230.797519"></polygon>
                <polygon id="Shape" stroke="#000000" stroke-linecap="round" stroke-linejoin="round" points="153.004194 226.662745 147.785459 214.258411 158.116253 205.98885 173.665782 210.123624 178.7392 222.527971 168.408422 230.797519"></polygon>
                <polygon id="Shape" fill="#FFFFFF" fill-rule="nonzero" points="178.739335 222.512475 173.665878 210.10814 184.121307 201.83858 199.650193 205.973367 204.578333 218.377701 194.122919 226.647261"></polygon>
                <polygon id="Shape" stroke="#000000" stroke-linecap="round" stroke-linejoin="round" points="178.739335 222.512475 173.665878 210.10814 184.121307 201.83858 199.650193 205.973367 204.578333 218.377701 194.122919 226.647261"></polygon>
                <polygon id="Shape" fill="#FFFFFF" fill-rule="nonzero" points="173.46108 243.201866 168.408422 230.797519 178.7392 222.527971 194.122668 226.662745 199.030009 239.067079 188.699215 247.336639"></polygon>
                <polygon id="Shape" stroke="#000000" stroke-linecap="round" stroke-linejoin="round" points="173.46108 243.201866 168.408422 230.797519 178.7392 222.527971 194.122668 226.662745 199.030009 239.067079 188.699215 247.336639"></polygon>
                <polygon id="Shape" fill="#FFFFFF" fill-rule="nonzero" points="199.030299 239.051595 194.122919 226.647261 204.578333 218.377701 219.941158 222.512475 224.703221 234.916822 214.247792 243.186369"></polygon>
                <polygon id="Shape" stroke="#000000" stroke-linecap="round" stroke-linejoin="round" points="199.030299 239.051595 194.122919 226.647261 204.578333 218.377701 219.941158 222.512475 224.703221 234.916822 214.247792 243.186369"></polygon>
                <polygon id="Shape" fill="#FFFFFF" fill-rule="nonzero" points="104.719076 334.167004 99.4588215 321.762658 109.042271 313.49311 123.885975 317.627884 129.000918 330.032218 119.417472 338.301778"></polygon>
                <polygon id="Shape" stroke="#000000" stroke-linecap="round" stroke-linejoin="round" points="104.719076 334.167004 99.4588215 321.762658 109.042271 313.49311 123.885975 317.627884 129.000918 330.032218 119.417472 338.301778"></polygon>
                <polygon id="Shape" fill="#FFFFFF" fill-rule="nonzero" points="129.000659 330.016734 123.885682 317.6124 133.593767 309.34284 148.416828 313.477614 153.386487 325.88196 143.678412 334.151508"></polygon>
                <polygon id="Shape" stroke="#000000" stroke-linecap="round" stroke-linejoin="round" points="129.000659 330.016734 123.885682 317.6124 133.593767 309.34284 148.416828 313.477614 153.386487 325.88196 143.678412 334.151508"></polygon>
                <polygon id="Shape" fill="#FFFFFF" fill-rule="nonzero" points="124.511655 350.706113 119.417472 338.301778 129.000918 330.032218 143.678555 334.167004 148.627416 346.571339 139.043966 354.840887"></polygon>
                <polygon id="Shape" stroke="#000000" stroke-linecap="round" stroke-linejoin="round" points="124.511655 350.706113 119.417472 338.301778 129.000918 330.032218 143.678555 334.167004 148.627416 346.571339 139.043966 354.840887"></polygon>
                <polygon id="Shape" fill="#FFFFFF" fill-rule="nonzero" points="148.627317 346.555855 143.678412 334.151508 153.386487 325.88196 168.043487 330.016734 172.84707 342.421069 163.138985 350.690629"></polygon>
                <polygon id="Shape" stroke="#000000" stroke-linecap="round" stroke-linejoin="round" points="148.627317 346.555855 143.678412 334.151508 153.386487 325.88196 168.043487 330.016734 172.84707 342.421069 163.138985 350.690629"></polygon>
                <polygon id="Shape" fill="#FFFFFF" fill-rule="nonzero" points="133.593982 309.358323 128.458271 296.953989 138.290835 288.684429 153.259096 292.819215 158.249491 305.223549 148.416927 313.49311"></polygon>
                <polygon id="Shape" stroke="#000000" stroke-linecap="round" stroke-linejoin="round" points="133.593982 309.358323 128.458271 296.953989 138.290835 288.684429 153.259096 292.819215 158.249491 305.223549 148.416927 313.49311"></polygon>
                <polygon id="Shape" fill="#FFFFFF" fill-rule="nonzero" points="158.24947 305.208066 153.259036 292.803719 163.216236 284.534171 178.163854 288.668945 183.008971 301.073279 173.051772 309.34284"></polygon>
                <polygon id="Shape" stroke="#000000" stroke-linecap="round" stroke-linejoin="round" points="158.24947 305.208066 153.259036 292.803719 163.216236 284.534171 178.163854 288.668945 183.008971 301.073279 173.051772 309.34284"></polygon>
                <polygon id="Shape" fill="#FFFFFF" fill-rule="nonzero" points="153.386547 325.897444 148.416927 313.49311 158.249491 305.223549 173.051676 309.358323 177.875994 321.762658 168.04343 330.032218"></polygon>
                <polygon id="Shape" stroke="#000000" stroke-linecap="round" stroke-linejoin="round" points="153.386547 325.897444 148.416927 313.49311 158.249491 305.223549 173.051676 309.358323 177.875994 321.762658 168.04343 330.032218"></polygon>
                <polygon id="Shape" fill="#FFFFFF" fill-rule="nonzero" points="177.876114 321.747174 173.051772 309.34284 183.008971 301.073279 197.790513 305.208066 202.469553 317.6124 192.512354 325.88196"></polygon>
                <polygon id="Shape" stroke="#000000" stroke-linecap="round" stroke-linejoin="round" points="177.876114 321.747174 173.051772 309.34284 183.008971 301.073279 197.790513 305.208066 202.469553 317.6124 192.512354 325.88196"></polygon>
                <polygon id="Shape" fill="#FFFFFF" fill-rule="nonzero" points="143.972082 367.245233 139.043966 354.840887 148.627416 346.571339 163.138967 350.706113 167.921766 363.110459 158.338316 371.380007"></polygon>
                <polygon id="Shape" stroke="#000000" stroke-linecap="round" stroke-linejoin="round" points="143.972082 367.245233 139.043966 354.840887 148.627416 346.571339 163.138967 350.706113 167.921766 363.110459 158.338316 371.380007"></polygon>
                <polygon id="Shape" fill="#FFFFFF" fill-rule="nonzero" points="167.921823 363.094976 163.138985 350.690629 172.84707 342.421069 187.337978 346.555855 191.975499 358.960177 182.267414 367.22975"></polygon>
                <polygon id="Shape" stroke="#000000" stroke-linecap="round" stroke-linejoin="round" points="167.921823 363.094976 163.138985 350.690629 172.84707 342.421069 187.337978 346.555855 191.975499 358.960177 182.267414 367.22975"></polygon>
                <polygon id="Shape" fill="#FFFFFF" fill-rule="nonzero" points="163.100341 383.784354 158.338316 371.380007 167.921766 363.110459 182.267241 367.245233 186.883949 379.649568 177.300513 387.919128"></polygon>
                <polygon id="Shape" stroke="#000000" stroke-linecap="round" stroke-linejoin="round" points="163.100341 383.784354 158.338316 371.380007 167.921766 363.110459 182.267241 367.245233 186.883949 379.649568 177.300513 387.919128"></polygon>
                <polygon id="Shape" fill="#FFFFFF" fill-rule="nonzero" points="186.884161 379.634084 182.267414 367.22975 191.975499 358.960177 206.30033 363.094976 210.771761 375.49931 201.06369 383.768858"></polygon>
                <polygon id="Shape" stroke="#000000" stroke-linecap="round" stroke-linejoin="round" points="186.884161 379.634084 182.267414 367.22975 191.975499 358.960177 206.30033 363.094976 210.771761 375.49931 201.06369 383.768858"></polygon>
                <polygon id="Shape" fill="#FFFFFF" fill-rule="nonzero" points="172.846974 342.436565 168.04343 330.032218 177.875994 321.762658 192.512103 325.897444 197.17033 338.301778 187.337765 346.571339"></polygon>
                <polygon id="Shape" stroke="#000000" stroke-linecap="round" stroke-linejoin="round" points="172.846974 342.436565 168.04343 330.032218 177.875994 321.762658 192.512103 325.897444 197.17033 338.301778 187.337765 346.571339"></polygon>
                <polygon id="Shape" fill="#FFFFFF" fill-rule="nonzero" points="197.17062 338.286307 192.512354 325.88196 202.469553 317.6124 217.085019 321.747174 221.597968 334.151508 211.640769 342.421069"></polygon>
                <polygon id="Shape" stroke="#000000" stroke-linecap="round" stroke-linejoin="round" points="197.17062 338.286307 192.512354 325.88196 202.469553 317.6124 217.085019 321.747174 221.597968 334.151508 211.640769 342.421069"></polygon>
                <polygon id="Shape" fill="#FFFFFF" fill-rule="nonzero" points="191.975247 358.975686 187.337765 346.571339 197.17033 338.301778 211.640361 342.436565 216.132527 354.840887 206.299962 363.110459"></polygon>
                <polygon id="Shape" stroke="#000000" stroke-linecap="round" stroke-linejoin="round" points="191.975247 358.975686 187.337765 346.571339 197.17033 338.301778 211.640361 342.436565 216.132527 354.840887 206.299962 363.110459"></polygon>
                <polygon id="Shape" fill="#FFFFFF" fill-rule="nonzero" points="216.132973 354.825415 211.640769 342.421069 221.597968 334.151508 236.047356 338.286307 240.394244 350.690629 230.437045 358.960177"></polygon>
                <polygon id="Shape" stroke="#000000" stroke-linecap="round" stroke-linejoin="round" points="216.132973 354.825415 211.640769 342.421069 221.597968 334.151508 236.047356 338.286307 240.394244 350.690629 230.437045 358.960177"></polygon>
                <polygon id="Shape" fill="#FFFFFF" fill-rule="nonzero" points="163.216218 284.549655 158.205078 272.145321 168.286758 263.87576 183.379576 268.010534 188.245399 280.414881 178.16372 288.684429"></polygon>
                <polygon id="Shape" stroke="#000000" stroke-linecap="round" stroke-linejoin="round" points="163.216218 284.549655 158.205078 272.145321 168.286758 263.87576 183.379576 268.010534 188.245399 280.414881 178.16372 288.684429"></polygon>
                <polygon id="Shape" fill="#FFFFFF" fill-rule="nonzero" points="188.245611 280.399385 183.37975 267.99505 193.586064 259.72549 208.65824 263.860264 213.378784 276.264611 203.17247 284.534171"></polygon>
                <polygon id="Shape" stroke="#000000" stroke-linecap="round" stroke-linejoin="round" points="188.245611 280.399385 183.37975 267.99505 193.586064 259.72549 208.65824 263.860264 213.378784 276.264611 203.17247 284.534171"></polygon>
                <polygon id="Shape" fill="#FFFFFF" fill-rule="nonzero" points="183.008798 301.088763 178.16372 288.684429 188.245399 280.414881 203.172156 284.549655 207.871902 296.953989 197.790223 305.223549"></polygon>
                <polygon id="Shape" stroke="#000000" stroke-linecap="round" stroke-linejoin="round" points="183.008798 301.088763 178.16372 288.684429 188.245399 280.414881 203.172156 284.549655 207.871902 296.953989 197.790223 305.223549"></polygon>
                <polygon id="Shape" fill="#FFFFFF" fill-rule="nonzero" points="207.87227 296.938505 203.17247 284.534171 213.378784 276.264611 228.284898 280.399385 232.839367 292.803719 222.633052 301.073279"></polygon>
                <polygon id="Shape" stroke="#000000" stroke-linecap="round" stroke-linejoin="round" points="207.87227 296.938505 203.17247 284.534171 213.378784 276.264611 228.284898 280.399385 232.839367 292.803719 222.633052 301.073279"></polygon>
                <polygon id="Shape" fill="#FFFFFF" fill-rule="nonzero" points="193.585813 259.740974 188.699215 247.336639 199.030009 239.067079 214.247385 243.201866 218.988665 255.6062 208.657872 263.87576"></polygon>
                <polygon id="Shape" stroke="#000000" stroke-linecap="round" stroke-linejoin="round" points="193.585813 259.740974 188.699215 247.336639 199.030009 239.067079 214.247385 243.201866 218.988665 255.6062 208.657872 263.87576"></polygon>
                <polygon id="Shape" fill="#FFFFFF" fill-rule="nonzero" points="218.989112 255.590704 214.247792 243.186369 224.703221 234.916822 239.899954 239.051595 244.495956 251.45593 234.040527 259.725503"></polygon>
                <polygon id="Shape" stroke="#000000" stroke-linecap="round" stroke-linejoin="round" points="218.989112 255.590704 214.247792 243.186369 224.703221 234.916822 239.899954 239.051595 244.495956 251.45593 234.040527 259.725503"></polygon>
                <polygon id="Shape" fill="#FFFFFF" fill-rule="nonzero" points="213.378377 276.280094 208.657872 263.87576 218.988665 255.6062 234.039965 259.740974 238.615153 272.145321 228.284375 280.414881"></polygon>
                <polygon id="Shape" stroke="#000000" stroke-linecap="round" stroke-linejoin="round" points="213.378377 276.280094 208.657872 263.87576 218.988665 255.6062 234.039965 259.740974 238.615153 272.145321 228.284375 280.414881"></polygon>
                <polygon id="Shape" fill="#FFFFFF" fill-rule="nonzero" points="238.615755 272.129824 234.040527 259.725503 244.495956 251.45593 259.526613 255.590704 263.956523 267.99505 253.501094 276.264611"></polygon>
                <polygon id="Shape" stroke="#000000" stroke-linecap="round" stroke-linejoin="round" points="238.615755 272.129824 234.040527 259.725503 244.495956 251.45593 259.526613 255.590704 263.956523 267.99505 253.501094 276.264611"></polygon>
                <polygon id="Shape" fill="#FFFFFF" fill-rule="nonzero" points="202.469224 317.627884 197.790223 305.223549 207.871902 296.953989 222.632568 301.088763 227.166252 313.49311 217.084573 321.76267"></polygon>
                <polygon id="Shape" stroke="#000000" stroke-linecap="round" stroke-linejoin="round" points="202.469224 317.627884 197.790223 305.223549 207.871902 296.953989 222.632568 301.088763 227.166252 313.49311 217.084573 321.76267"></polygon>
                <polygon id="Shape" fill="#FFFFFF" fill-rule="nonzero" points="227.166776 313.477614 222.633052 301.073279 232.839367 292.803719 247.579389 296.938505 251.967781 309.34284 241.761481 317.6124"></polygon>
                <polygon id="Shape" stroke="#000000" stroke-linecap="round" stroke-linejoin="round" points="227.166776 313.477614 222.633052 301.073279 232.839367 292.803719 247.579389 296.938505 251.967781 309.34284 241.761481 317.6124"></polygon>
                <polygon id="Shape" fill="#FFFFFF" fill-rule="nonzero" points="221.597483 334.167004 217.084573 321.76267 227.166252 313.49311 241.760842 317.627884 246.128435 330.032218 236.046756 338.301778"></polygon>
                <polygon id="Shape" stroke="#000000" stroke-linecap="round" stroke-linejoin="round" points="221.597483 334.167004 217.084573 321.76267 227.166252 313.49311 241.760842 317.627884 246.128435 330.032218 236.046756 338.301778"></polygon>
                <polygon id="Shape" fill="#FFFFFF" fill-rule="nonzero" points="246.129114 330.016734 241.761481 317.6124 251.967781 309.34284 266.541742 313.477614 270.764057 325.88196 260.557743 334.151508"></polygon>
                <polygon id="Shape" stroke="#000000" stroke-linecap="round" stroke-linejoin="round" points="246.129114 330.016734 241.761481 317.6124 251.967781 309.34284 266.541742 313.477614 270.764057 325.88196 260.557743 334.151508"></polygon>
                <polygon id="Shape" fill="#FFFFFF" fill-rule="nonzero" points="232.838804 292.819215 228.284375 280.414881 238.615153 272.145321 253.500392 276.280094 257.909504 288.684429 247.57871 296.953989"></polygon>
                <polygon id="Shape" stroke="#000000" stroke-linecap="round" stroke-linejoin="round" points="232.838804 292.819215 228.284375 280.414881 238.615153 272.145321 253.500392 276.280094 257.909504 288.684429 247.57871 296.953989"></polygon>
                <polygon id="Shape" fill="#FFFFFF" fill-rule="nonzero" points="257.910261 288.668945 253.501094 276.264611 263.956523 267.99505 278.821119 272.129824 283.084952 284.534171 272.629524 292.803719"></polygon>
                <polygon id="Shape" stroke="#000000" stroke-linecap="round" stroke-linejoin="round" points="257.910261 288.668945 253.501094 276.264611 263.956523 267.99505 278.821119 272.129824 283.084952 284.534171 272.629524 292.803719"></polygon>
                <polygon id="Shape" fill="#FFFFFF" fill-rule="nonzero" points="251.967078 309.358323 247.57871 296.953989 257.909504 288.684429 272.62865 292.819215 276.871701 305.223549 266.540907 313.49311"></polygon>
                <polygon id="Shape" stroke="#000000" stroke-linecap="round" stroke-linejoin="round" points="251.967078 309.358323 247.57871 296.953989 257.909504 288.684429 272.62865 292.819215 276.871701 305.223549 266.540907 313.49311"></polygon>
                <polygon id="Shape" fill="#FFFFFF" fill-rule="nonzero" points="276.872613 305.208066 272.629524 292.803719 283.084952 284.534171 297.783456 288.668945 301.881229 301.073279 291.4258 309.34284"></polygon>
                <polygon id="Shape" stroke="#000000" stroke-linecap="round" stroke-linejoin="round" points="276.872613 305.208066 272.629524 292.803719 283.084952 284.534171 297.783456 288.668945 301.881229 301.073279 291.4258 309.34284"></polygon>
                <polygon id="Shape" fill="#FFFFFF" fill-rule="nonzero" points="6.76467366 193.715576 136.166862 90.3383613 312.139635 230.913108 182.737447 334.290336"></polygon>
                <polygon id="Shape" fill="#FFFFFF" fill-rule="nonzero" points="6.76467366 193.715576 136.166862 90.3383613 227.152682 160.625741 97.7504863 264.002956"></polygon>
                <polygon id="Shape" stroke="#000000" stroke-linecap="round" stroke-linejoin="round" points="6.76467366 193.715576 136.166862 90.3383613 227.152682 160.625741 97.7504863 264.002956"></polygon>
                <polygon id="Shape" fill="#FFFFFF" fill-rule="nonzero" points="97.7504863 264.002956 160.771087 212.361018 245.758041 282.648385 182.737447 334.290336"></polygon>
                <polygon id="Shape" stroke="#000000" stroke-linecap="round" stroke-linejoin="round" points="97.7504863 264.002956 160.771087 212.361018 245.758041 282.648385 182.737447 334.290336"></polygon>
                <polygon id="Shape" fill="#FFFFFF" fill-rule="nonzero" points="69.9021045 141.980299 136.166862 90.3383613 227.1537 160.626554 160.888942 212.268492"></polygon>
                <polygon id="Shape" stroke="#000000" stroke-linecap="round" stroke-linejoin="round" points="69.9021045 141.980299 136.166862 90.3383613 227.1537 160.626554 160.888942 212.268492"></polygon>
                <polygon id="Shape" fill="#FFFFFF" fill-rule="nonzero" points="69.7852672 142.073638 136.289571 90.2450219 182.471203 125.341485 115.966899 177.170102"></polygon>
                <polygon id="Shape" stroke="#000000" stroke-linecap="round" stroke-linejoin="round" points="69.7852672 142.073638 136.289571 90.2450219 182.471203 125.341485 115.966899 177.170102"></polygon>
                <polygon id="Shape" fill="#FFFFFF" fill-rule="nonzero" points="115.966899 177.170102 182.471203 125.341485 227.276401 160.533214 160.772105 212.361831"></polygon>
                <polygon id="Shape" stroke="#000000" stroke-linecap="round" stroke-linejoin="round" points="115.966899 177.170102 182.471203 125.341485 227.276401 160.533214 160.772105 212.361831"></polygon>
                <polygon id="Shape" fill="#FFFFFF" fill-rule="nonzero" points="116.083736 177.076763 148.811326 151.255794 193.616532 186.447523 160.888942 212.268492"></polygon>
                <polygon id="Shape" stroke="#000000" stroke-linecap="round" stroke-linejoin="round" points="116.083736 177.076763 148.811326 151.255794 193.616532 186.447523 160.888942 212.268492"></polygon>
                <polygon id="Shape" fill="#FFFFFF" fill-rule="nonzero" points="69.9021045 141.980299 102.629694 116.15933 148.811326 151.255794 116.083736 177.076763"></polygon>
                <polygon id="Shape" stroke="#000000" stroke-linecap="round" stroke-linejoin="round" points="69.9021045 141.980299 102.629694 116.15933 148.811326 151.255794 116.083736 177.076763"></polygon>
                <polygon id="Shape" fill="#FFFFFF" fill-rule="nonzero" points="6.76467366 193.715576 38.0980202 167.707929 84.2796519 202.804392 52.9463054 228.81204"></polygon>
                <polygon id="Shape" stroke="#000000" stroke-linecap="round" stroke-linejoin="round" points="6.76467366 193.715576 38.0980202 167.707929 84.2796519 202.804392 52.9463054 228.81204"></polygon>
                <polygon id="Shape" fill="#FFFFFF" fill-rule="nonzero" points="84.2890437 202.992997 116.207056 177.172028 160.888942 212.268492 128.97093 238.089461"></polygon>
                <polygon id="Shape" stroke="#000000" stroke-linecap="round" stroke-linejoin="round" points="84.2890437 202.992997 116.207056 177.172028 160.888942 212.268492 128.97093 238.089461"></polygon>
                <polygon id="Shape" fill="#FFFFFF" fill-rule="nonzero" points="160.888942 212.268492 193.616532 186.447523 236.802734 221.543986 204.075144 247.364955"></polygon>
                <polygon id="Shape" stroke="#000000" stroke-linecap="round" stroke-linejoin="round" points="160.888942 212.268492 193.616532 186.447523 236.802734 221.543986 204.075144 247.364955"></polygon>
                <polygon id="Shape" fill="#FFFFFF" fill-rule="nonzero" points="193.736307 186.354183 227.276401 160.533214 270.462602 195.629678 236.922508 221.450647"></polygon>
                <polygon id="Shape" stroke="#000000" stroke-linecap="round" stroke-linejoin="round" points="193.736307 186.354183 227.276401 160.533214 270.462602 195.629678 236.922508 221.450647"></polygon>
                <polygon id="Shape" fill="#FFFFFF" fill-rule="nonzero" points="236.798159 221.732591 270.577791 195.724943 312.264247 230.821407 278.484615 256.829055"></polygon>
                <polygon id="Shape" stroke="#000000" stroke-linecap="round" stroke-linejoin="round" points="236.798159 221.732591 270.577791 195.724943 312.264247 230.821407 278.484615 256.829055"></polygon>
                <polygon id="Shape" fill="#FFFFFF" fill-rule="nonzero" points="203.958306 247.458307 236.68297 221.637326 278.373486 256.733789 245.648823 282.554758"></polygon>
                <polygon id="Shape" stroke="#000000" stroke-linecap="round" stroke-linejoin="round" points="203.958306 247.458307 236.68297 221.637326 278.373486 256.733789 245.648823 282.554758"></polygon>
                <polygon id="Shape" fill="#FFFFFF" fill-rule="nonzero" points="128.857019 238.1828 160.772105 212.361831 203.958306 247.458307 172.043221 273.279263"></polygon>
                <polygon id="Shape" stroke="#000000" stroke-linecap="round" stroke-linejoin="round" points="128.857019 238.1828 160.772105 212.361831 203.958306 247.458307 172.043221 273.279263"></polygon>
                <polygon id="Shape" fill="#FFFFFF" fill-rule="nonzero" points="97.6405382 264.097121 128.97093 238.089461 172.157132 273.185924 140.826739 299.193572"></polygon>
                <polygon id="Shape" stroke="#000000" stroke-linecap="round" stroke-linejoin="round" points="97.6405382 264.097121 128.97093 238.089461 172.157132 273.185924 140.826739 299.193572"></polygon>
                <polygon id="Shape" fill="#FFFFFF" fill-rule="nonzero" points="171.815431 273.465955 203.958306 247.458307 245.648823 282.554758 213.505947 308.562406"></polygon>
                <polygon id="Shape" stroke="#000000" stroke-linecap="round" stroke-linejoin="round" points="171.815431 273.465955 203.958306 247.458307 245.648823 282.554758 213.505947 308.562406"></polygon>
                <polygon id="Shape" fill="#FFFFFF" fill-rule="nonzero" points="140.826739 299.193572 172.157132 273.185924 213.847648 308.282388 182.517255 334.290048"></polygon>
                <polygon id="Shape" stroke="#000000" stroke-linecap="round" stroke-linejoin="round" points="140.826739 299.193572 172.157132 273.185924 213.847648 308.282388 182.517255 334.290048"></polygon>
                <polygon id="Shape" fill="#FFFFFF" fill-rule="nonzero" points="0.106269983 103.842069 135.149249 0.464854288 318.792502 141.039601 183.749522 244.416816"></polygon>
                <polygon id="Shape" fill="#FFFFFF" fill-rule="nonzero" points="0.106269983 103.842069 135.149249 0.464854288 229.97031 70.7522277 94.9273221 174.129449"></polygon>
                <polygon id="Shape" stroke="#000000" stroke-linecap="round" stroke-linejoin="round" points="0.106269983 103.842069 135.149249 0.464854288 229.97031 70.7522277 94.9273221 174.129449"></polygon>
                <polygon id="Shape" fill="#FFFFFF" fill-rule="nonzero" points="94.9273221 174.129449 160.765773 122.487511 249.587965 192.774878 183.749522 244.416816"></polygon>
                <polygon id="Shape" stroke="#000000" stroke-linecap="round" stroke-linejoin="round" points="94.9273221 174.129449 160.765773 122.487511 249.587965 192.774878 183.749522 244.416816"></polygon>
                <polygon id="Shape" fill="#FFFFFF" fill-rule="nonzero" points="66.0666429 52.1067921 135.149249 0.464854288 229.971371 70.7530469 160.888765 122.394985"></polygon>
                <polygon id="Shape" stroke="#000000" stroke-linecap="round" stroke-linejoin="round" points="66.0666429 52.1067921 135.149249 0.464854288 229.971371 70.7530469 160.888765 122.394985"></polygon>
                <polygon id="Shape" fill="#FFFFFF" fill-rule="nonzero" points="65.9447124 52.2001315 135.277052 0.371514891 183.373727 35.4679784 114.041387 87.296595"></polygon>
                <polygon id="Shape" stroke="#000000" stroke-linecap="round" stroke-linejoin="round" points="65.9447124 52.2001315 135.277052 0.371514891 183.373727 35.4679784 114.041387 87.296595"></polygon>
                <polygon id="Shape" fill="#000000" fill-rule="nonzero" points="114.041387 87.296595 183.373727 35.4679784 230.099166 70.6597075 160.766835 122.488324"></polygon>
                <polygon id="Shape" stroke="#000000" stroke-linecap="round" stroke-linejoin="round" points="114.041387 87.296595 183.373727 35.4679784 230.099166 70.6597075 160.766835 122.488324"></polygon>
                <polygon id="Shape" fill="#FFFFFF" fill-rule="nonzero" points="114.163318 87.2032556 148.299832 61.3822867 195.025279 96.5740158 160.888765 122.394985"></polygon>
                <polygon id="Shape" stroke="#000000" stroke-linecap="round" stroke-linejoin="round" points="114.163318 87.2032556 148.299832 61.3822867 195.025279 96.5740158 160.888765 122.394985"></polygon>
                <polygon id="Shape" fill="#FFFFFF" fill-rule="nonzero" points="66.0666429 52.1067921 100.203157 26.2858232 148.299832 61.3822867 114.163318 87.2032556"></polygon>
                <polygon id="Shape" stroke="#000000" stroke-linecap="round" stroke-linejoin="round" points="66.0666429 52.1067921 100.203157 26.2858232 148.299832 61.3822867 114.163318 87.2032556"></polygon>
                <polygon id="Shape" fill="#000000" fill-rule="nonzero" points="0.106269983 103.842069 32.8587275 77.8344216 80.9554021 112.930885 48.2029448 138.938533"></polygon>
                <polygon id="Shape" stroke="#000000" stroke-linecap="round" stroke-linejoin="round" points="0.106269983 103.842069 32.8587275 77.8344216 80.9554021 112.930885 48.2029448 138.938533"></polygon>
                <polygon id="Shape" fill="#FFFFFF" fill-rule="nonzero" points="80.9648987 113.11949 114.291835 87.2985211 160.888765 122.394985 127.561828 148.215954"></polygon>
                <polygon id="Shape" stroke="#000000" stroke-linecap="round" stroke-linejoin="round" points="80.9648987 113.11949 114.291835 87.2985211 160.888765 122.394985 127.561828 148.215954"></polygon>
                <polygon id="Shape" fill="#FFFFFF" fill-rule="nonzero" points="160.888765 122.394985 195.025279 96.5740158 240.126524 131.670479 205.99001 157.491448"></polygon>
                <polygon id="Shape" stroke="#000000" stroke-linecap="round" stroke-linejoin="round" points="160.888765 122.394985 195.025279 96.5740158 240.126524 131.670479 205.99001 157.491448"></polygon>
                <polygon id="Shape" fill="#FFFFFF" fill-rule="nonzero" points="195.150147 96.4806764 230.099166 70.6597075 275.20041 105.756171 240.251391 131.57714"></polygon>
                <polygon id="Shape" stroke="#000000" stroke-linecap="round" stroke-linejoin="round" points="195.150147 96.4806764 230.099166 70.6597075 275.20041 105.756171 240.251391 131.57714"></polygon>
                <polygon id="Shape" fill="#000000" fill-rule="nonzero" points="240.122054 131.859084 275.320797 105.851436 318.922296 140.9479 283.723553 166.955548"></polygon>
                <polygon id="Shape" stroke="#000000" stroke-linecap="round" stroke-linejoin="round" points="240.122054 131.859084 275.320797 105.851436 318.922296 140.9479 283.723553 166.955548"></polygon>
                <polygon id="Shape" fill="#FFFFFF" fill-rule="nonzero" points="205.868079 157.584788 240.001667 131.763819 283.607226 166.860282 249.473638 192.681251"></polygon>
                <polygon id="Shape" stroke="#000000" stroke-linecap="round" stroke-linejoin="round" points="205.868079 157.584788 240.001667 131.763819 283.607226 166.860282 249.473638 192.681251"></polygon>
                <polygon id="Shape" fill="#FFFFFF" fill-rule="nonzero" points="127.442824 148.309293 160.766835 122.488324 205.868079 157.584788 172.544069 183.405757"></polygon>
                <polygon id="Shape" stroke="#000000" stroke-linecap="round" stroke-linejoin="round" points="127.442824 148.309293 160.766835 122.488324 205.868079 157.584788 172.544069 183.405757"></polygon>
                <polygon id="Shape" fill="#FFFFFF" fill-rule="nonzero" points="94.8123253 174.223601 127.561828 148.215954 172.663073 183.312417 139.91357 209.320065"></polygon>
                <polygon id="Shape" stroke="#000000" stroke-linecap="round" stroke-linejoin="round" points="94.8123253 174.223601 127.561828 148.215954 172.663073 183.312417 139.91357 209.320065"></polygon>
                <polygon id="Shape" fill="#FFFFFF" fill-rule="nonzero" points="172.306093 183.592448 205.868079 157.584788 249.473638 192.681251 215.911652 218.688911"></polygon>
                <polygon id="Shape" stroke="#000000" stroke-linecap="round" stroke-linejoin="round" points="172.306093 183.592448 205.868079 157.584788 249.473638 192.681251 215.911652 218.688911"></polygon>
                <polygon id="Shape" fill="#000000" fill-rule="nonzero" points="139.91357 209.320065 172.663073 183.312417 216.268632 218.408881 183.519129 244.416528"></polygon>
            </g>
        </g>
        <text id="RegionMask" font-family="FiraSans-Regular, Fira Sans" font-size="18" font-weight="normal" fill="#4A4A4A">
            <tspan x="442" y="146">RegionMask</tspan>
        </text>
        <path d="M333.5,141.5 L432.5,141.5" id="Line" stroke="#979797" stroke-linecap="square"></path>
        <text id="RegionGrid" font-family="FiraSans-Regular, Fira Sans" font-size="18" font-weight="normal" fill="#4A4A4A">
            <tspan x="439" y="237">RegionGrid</tspan>
        </text>
        <path d="M330.5,232.5 L429.5,232.5" id="Line" stroke="#979797" stroke-linecap="square"></path>
        <text id="HexagonGrid" font-family="FiraSans-Regular, Fira Sans" font-size="18" font-weight="normal" fill="#4A4A4A">
            <tspan x="436" y="328">HexagonGrid</tspan>
        </text>
        <path d="M327.5,323.5 L426.5,323.5" id="Line" stroke="#979797" stroke-linecap="square"></path>
    </g>
</svg>